<?xml version="1.0" encoding="UTF-8"?>
<svg version="1.1" xmlns="http://www.w3.org/2000/svg" width="461" height="259">
<path d="M0 0 C152.13 0 304.26 0 461 0 C461 85.47 461 170.94 461 259 C308.87 259 156.74 259 0 259 C0 173.53 0 88.06 0 0 Z " fill="#FEFEFE" transform="translate(0,0)"/>
<path d="M0 0 C8.73816107 6.97764705 15.54292403 17.22992568 19.734375 27.52734375 C20.76042319 30.77127018 20.76042319 30.77127018 23.125 31.6875 C23.2075 31.0275 23.29 30.3675 23.375 29.6875 C26.28200052 18.0594979 35.08430107 6.1563374 45.140625 -0.2265625 C54.82329493 -5.6983969 64.05778287 -9.11660447 75.19921875 -6.625 C86.64570798 -3.43434098 95.20498406 1.8974985 102.125 11.6875 C110.23719916 26.36500447 113.72736487 43.32535465 109.19921875 59.7578125 C102.17805061 78.90645288 84.58598946 89.40338331 68.07983398 99.60205078 C60.16277365 104.5229482 52.86470644 109.93214306 46 116.25 C43.24425149 118.77645665 40.47905407 121.22521533 37.5625 123.5625 C31.8944311 128.35336776 27.22648538 134.53527193 23.125 140.6875 C19.8379523 139.30199172 18.22289406 137.84681671 16.1875 134.9375 C15.67058594 134.22207031 15.15367187 133.50664062 14.62109375 132.76953125 C13.88052734 131.73892578 13.88052734 131.73892578 13.125 130.6875 C9.2420024 125.68047678 4.98498952 121.70529738 0.125 117.6875 C-0.84050781 116.8728125 -1.80601562 116.058125 -2.80078125 115.21875 C-10.33224796 109.00085835 -18.26090591 103.90493034 -26.67822266 98.96484375 C-43.33054631 89.17349474 -59.49936964 77.44699187 -65.9609375 58.50390625 C-69.55540074 43.49625418 -66.74882053 26.48126109 -59.40625 13.02734375 C-52.1211153 1.8952119 -42.86232994 -5.12530688 -29.80859375 -7.90234375 C-19.41317223 -9.35576487 -8.67881539 -5.753372 0 0 Z " fill="#191919" transform="translate(210.875,61.3125)"/>
</svg>
